<svg width="1920" height="1099" viewBox="0 0 1920 1099" fill="none" xmlns="http://www.w3.org/2000/svg">
<rect width="1920" height="1099" fill="url(#paint0_linear_2002_213)"/>
<g clip-path="url(#clip0_2002_213)">
<g filter="url(#filter0_f_2002_213)">
<path d="M959.562 558.938C871.892 558.938 787.812 593.765 725.82 655.757C663.827 717.749 629 801.829 629 889.5C629 977.171 663.827 1061.25 725.82 1123.24C787.812 1185.24 871.892 1220.06 959.562 1220.06C1047.23 1220.06 1131.31 1185.24 1193.31 1123.24C1255.3 1061.25 1290.12 977.171 1290.12 889.5C1290.12 801.829 1255.3 717.749 1193.31 655.757C1131.31 593.765 1047.23 558.938 959.562 558.938ZM1143.07 908.527C1139 913.878 1133.36 917.825 1126.94 919.815L1075.02 937.23C1059.15 942.653 1044.71 951.581 1032.77 963.353C1020.91 975.222 1011.97 989.685 1006.65 1005.6L988.91 1057.52C986.524 1063.38 982.629 1068.5 977.623 1072.36C972.268 1076.24 965.851 1078.38 959.24 1078.49C952.595 1078.58 946.115 1076.42 940.858 1072.36C935.494 1068.51 931.442 1063.1 929.248 1056.88L912.155 1004.95C906.843 988.984 897.862 974.481 885.933 962.608C874.003 950.735 859.458 941.822 843.462 936.585L791.863 919.493C785.636 917.298 780.232 913.246 776.383 907.882C772.362 902.602 770.207 896.137 770.255 889.5C770.298 882.779 772.441 876.239 776.383 870.795C780.086 865.567 785.416 861.712 791.54 859.83L843.462 842.415C859.513 836.98 874.16 828.059 886.355 816.292C898.287 804.231 907.221 789.525 912.478 773.4L929.892 722.445C931.825 716.343 935.53 710.955 940.535 706.965C945.679 702.622 952.185 700.224 958.917 700.193C965.316 700.083 971.603 701.879 976.978 705.352C982.653 708.881 986.971 714.222 989.233 720.51L1006.65 773.078C1012.07 789.299 1021.1 804.07 1033.09 816.292C1045.21 827.993 1059.74 836.908 1075.66 842.415L1127.58 860.475C1133.76 862.441 1139.09 866.414 1142.74 871.762C1146.51 877.155 1148.53 883.569 1148.55 890.145C1148.52 896.66 1146.61 903.045 1143.07 908.527Z" fill="url(#paint1_linear_2002_213)"/>
</g>
<g clip-path="url(#clip1_2002_213)">
<path fill-rule="evenodd" clip-rule="evenodd" d="M361.935 464.155C361.617 463.282 360.383 463.282 360.065 464.155L358.622 468.122L354.655 469.565C353.782 469.883 353.782 471.117 354.655 471.435L358.622 472.878L360.065 476.845C360.383 477.718 361.617 477.718 361.935 476.845L363.378 472.878L367.345 471.435C368.218 471.117 368.218 469.883 367.345 469.565L363.378 468.122L361.935 464.155Z" fill="#FF0A8D"/>
</g>
<g clip-path="url(#clip2_2002_213)">
<path fill-rule="evenodd" clip-rule="evenodd" d="M145.402 770.482C144.925 769.173 143.074 769.173 142.597 770.482L140.433 776.433L134.482 778.597C133.173 779.074 133.173 780.925 134.482 781.402L140.433 783.567L142.597 789.517C143.074 790.827 144.925 790.827 145.402 789.517L147.567 783.567L153.517 781.402C154.827 780.925 154.827 779.074 153.517 778.597L147.567 776.433L145.402 770.482Z" fill="#FF0A8D"/>
</g>
<g clip-path="url(#clip3_2002_213)">
<path fill-rule="evenodd" clip-rule="evenodd" d="M697.739 1077.62C696.467 1074.13 691.531 1074.13 690.259 1077.62L684.487 1093.49L668.619 1099.26C665.127 1100.53 665.127 1105.47 668.619 1106.74L684.487 1112.51L690.259 1128.38C691.531 1131.87 696.467 1131.87 697.739 1128.38L703.511 1112.51L719.379 1106.74C722.871 1105.47 722.871 1100.53 719.379 1099.26L703.511 1093.49L697.739 1077.62Z" fill="#ED77B6"/>
</g>
<g clip-path="url(#clip4_2002_213)">
<path fill-rule="evenodd" clip-rule="evenodd" d="M627.807 222.31C627.171 220.564 624.703 220.564 624.067 222.31L621.181 230.244L613.247 233.13C611.501 233.766 611.501 236.234 613.247 236.87L621.181 239.756L624.067 247.69C624.703 249.436 627.171 249.436 627.807 247.69L630.693 239.756L638.627 236.87C640.373 236.234 640.373 233.766 638.627 233.13L630.693 230.244L627.807 222.31Z" fill="#FF0A8D"/>
</g>
<g clip-path="url(#clip5_2002_213)">
<path fill-rule="evenodd" clip-rule="evenodd" d="M131.056 130.83C130.696 129.843 129.302 129.843 128.943 130.83L127.312 135.312L122.829 136.943C121.843 137.302 121.843 138.697 122.829 139.056L127.312 140.687L128.943 145.169C129.302 146.156 130.696 146.156 131.056 145.169L132.686 140.687L137.169 139.056C138.155 138.697 138.155 137.302 137.169 136.943L132.686 135.312L131.056 130.83Z" fill="#FF0A8D"/>
</g>
<g clip-path="url(#clip6_2002_213)">
<path fill-rule="evenodd" clip-rule="evenodd" d="M1830.87 397.31C1830.23 395.564 1827.77 395.564 1827.13 397.31L1824.24 405.244L1816.31 408.13C1814.56 408.766 1814.56 411.234 1816.31 411.87L1824.24 414.756L1827.13 422.69C1827.77 424.436 1830.23 424.436 1830.87 422.69L1833.76 414.756L1841.69 411.87C1843.44 411.234 1843.44 408.766 1841.69 408.13L1833.76 405.244L1830.87 397.31Z" fill="#FF0A8D"/>
</g>
<g clip-path="url(#clip7_2002_213)">
<path fill-rule="evenodd" clip-rule="evenodd" d="M1308.78 205.655C1308.46 204.782 1307.22 204.782 1306.91 205.655L1305.46 209.622L1301.5 211.065C1300.62 211.383 1300.62 212.617 1301.5 212.935L1305.46 214.378L1306.91 218.345C1307.22 219.218 1308.46 219.218 1308.78 218.345L1310.22 214.378L1314.19 212.935C1315.06 212.617 1315.06 211.383 1314.19 211.065L1310.22 209.622L1308.78 205.655Z" fill="#FF0A8D"/>
</g>
<g clip-path="url(#clip8_2002_213)">
<path fill-rule="evenodd" clip-rule="evenodd" d="M1660.93 898.655C1660.62 897.782 1659.38 897.782 1659.06 898.655L1657.62 902.622L1653.65 904.065C1652.78 904.383 1652.78 905.617 1653.65 905.935L1657.62 907.378L1659.06 911.345C1659.38 912.218 1660.62 912.218 1660.93 911.345L1662.38 907.378L1666.34 905.935C1667.22 905.617 1667.22 904.383 1666.34 904.065L1662.38 902.622L1660.93 898.655Z" fill="#FF0A8D"/>
</g>
</g>
<defs>
<filter id="filter0_f_2002_213" x="229" y="158.938" width="1461.12" height="1461.12" filterUnits="userSpaceOnUse" color-interpolation-filters="sRGB">
<feFlood flood-opacity="0" result="BackgroundImageFix"/>
<feBlend mode="normal" in="SourceGraphic" in2="BackgroundImageFix" result="shape"/>
<feGaussianBlur stdDeviation="200" result="effect1_foregroundBlur_2002_213"/>
</filter>
<linearGradient id="paint0_linear_2002_213" x1="960" y1="-1012" x2="960" y2="1099" gradientUnits="userSpaceOnUse">
<stop stop-color="white"/>
<stop offset="1" stop-color="#F0F0F0"/>
</linearGradient>
<linearGradient id="paint1_linear_2002_213" x1="1290.12" y1="889.5" x2="629" y2="889.5" gradientUnits="userSpaceOnUse">
<stop offset="0.5" stop-color="#FF46E3"/>
<stop offset="1" stop-color="#299AFC"/>
</linearGradient>
<clipPath id="clip0_2002_213">
<rect width="1920" height="1099" fill="white"/>
</clipPath>
<clipPath id="clip1_2002_213">
<rect width="14" height="14" fill="white" transform="translate(354 463.5)"/>
</clipPath>
<clipPath id="clip2_2002_213">
<rect width="21" height="21" fill="white" transform="translate(133.5 769.5)"/>
</clipPath>
<clipPath id="clip3_2002_213">
<rect width="56" height="56" fill="white" transform="translate(666 1075)"/>
</clipPath>
<clipPath id="clip4_2002_213">
<rect width="28" height="28" fill="white" transform="translate(611.938 221)"/>
</clipPath>
<clipPath id="clip5_2002_213">
<rect width="15.82" height="15.82" fill="white" transform="translate(122.089 130.089)"/>
</clipPath>
<clipPath id="clip6_2002_213">
<rect width="28" height="28" fill="white" transform="translate(1815 396)"/>
</clipPath>
<clipPath id="clip7_2002_213">
<rect width="14" height="14" fill="white" transform="translate(1300.84 205)"/>
</clipPath>
<clipPath id="clip8_2002_213">
<rect width="14" height="14" fill="white" transform="translate(1653 898)"/>
</clipPath>
</defs>
</svg>
