<svg width="89" height="22" viewBox="0 0 89 22" fill="none" xmlns="http://www.w3.org/2000/svg">
<path d="M11.6638 17.5188C11.6093 16.9865 11.5747 16.4171 11.54 15.8129C11.5054 15.2088 11.4855 14.6047 11.4855 14.0353C11.4682 13.4485 11.4682 12.8617 11.4682 12.2923V9.80402C11.4682 9.00431 11.3791 8.27393 11.2008 7.63516C11.0226 6.95924 10.7205 6.37246 10.312 5.89214C9.90347 5.41183 9.35135 5.02064 8.65811 4.75325C7.9822 4.48585 7.12802 4.34473 6.15005 4.34473C5.47414 4.34473 4.79823 4.43386 4.12232 4.59479C3.46374 4.75572 2.85962 5.02064 2.36197 5.37716C1.84699 5.73369 1.41867 6.1942 1.08195 6.72899C0.742759 7.2613 0.512502 7.90255 0.423371 8.63045L0.388705 8.82605L3.21615 9.55395L3.25081 9.30389C3.32261 8.71711 3.5182 8.23679 3.80293 7.88026C4.10498 7.54355 4.46151 7.27616 4.87003 7.13256C5.74153 6.81317 6.75417 6.8305 7.41275 7.16721C7.75194 7.32815 7.99953 7.54107 8.17779 7.8258C8.35605 8.09319 8.44518 8.42991 8.44518 8.80377C8.44518 9.03402 8.37338 9.21228 8.24958 9.33608C8.12579 9.4772 7.87573 9.60347 7.52168 9.6728C7.13049 9.77926 6.59818 9.86839 5.92227 9.94019C5.22903 10.0813 4.55311 10.2076 3.89453 10.3314C3.21862 10.4725 2.57985 10.6879 2.0104 10.99C1.40629 11.3093 0.908638 11.7377 0.552113 12.27C0.195589 12.8023 0 13.498 0 14.3324C0 15.1667 0.178261 15.8798 0.53231 16.4121C0.888835 16.9444 1.36915 17.3727 1.97327 17.6575C2.56005 17.9422 3.20129 18.1031 3.87473 18.1031C4.7809 18.1031 5.56327 17.9075 6.23918 17.551C6.91509 17.1771 7.46721 16.6968 7.91039 16.0927C8.24958 15.6297 8.51451 15.1148 8.72743 14.5824C8.72743 15.0083 8.74476 15.4366 8.74476 15.8451L8.81656 17.7466H11.6787L11.6613 17.5163L11.6638 17.5188ZM4.85269 15.5975C4.30057 15.5975 3.8574 15.4564 3.55534 15.189C3.25329 14.9043 3.10969 14.5131 3.10969 13.9808C3.10969 13.5351 3.19882 13.1984 3.41174 12.9682C3.60734 12.7181 3.90939 12.5225 4.28325 12.3641C4.67443 12.2031 5.10028 12.0793 5.5806 12.0075C6.06092 11.9184 6.54124 11.8466 7.00175 11.7773C7.48207 11.6882 7.94506 11.5817 8.37091 11.4406C8.38824 11.4406 8.40557 11.4232 8.42537 11.4232L8.4427 12.3121C8.28177 12.8444 8.06885 13.3247 7.82126 13.753C7.5712 14.1789 7.26914 14.5181 6.94975 14.7855C6.61056 15.0355 6.25651 15.2485 5.89999 15.3896C5.52613 15.5307 5.18942 15.6025 4.85022 15.6025L4.85269 15.5975Z" fill="#E7E7E7"/>
<path d="M32.6615 7.59809C32.5006 7.00883 32.2803 6.46909 32.0054 5.99867C31.7182 5.5035 31.3048 5.09993 30.7774 4.7954C30.2501 4.49335 29.5939 4.33984 28.8264 4.33984C28.0589 4.33984 27.3582 4.52305 26.7517 4.88206C26.1401 5.24353 25.6276 5.80556 25.229 6.55327C24.9096 7.15243 24.6496 7.90014 24.459 8.7865C24.4243 8.27399 24.3575 7.79616 24.2634 7.35793C24.1297 6.7241 23.9094 6.18189 23.6073 5.74118C23.3028 5.298 22.9066 4.95138 22.4288 4.70627C21.9509 4.46364 21.3889 4.33984 20.7551 4.33984C20.0024 4.33984 19.3191 4.52306 18.7249 4.88453C18.1307 5.24849 17.6405 5.82041 17.274 6.58793C16.9819 7.20194 16.7442 7.95708 16.5684 8.83849L16.769 4.63199H13.996L14.0232 17.7566H17.1007V12.2527C17.1478 11.1881 17.3013 10.2522 17.5538 9.47231C17.8014 8.70479 18.1356 8.11059 18.5466 7.7095C18.9452 7.31583 19.428 7.12767 20.0247 7.12767C20.5149 7.12767 20.8764 7.26384 21.1265 7.54362C21.3939 7.83824 21.5895 8.20962 21.7108 8.64785C21.8346 9.10341 21.9163 9.56887 21.946 10.0294C21.9782 10.527 21.9955 10.9157 21.9955 11.2203V17.759H25.0483V12.1834C25.0953 11.151 25.2488 10.2423 25.5013 9.47479C25.7489 8.7246 26.0931 8.13534 26.5288 7.72435C26.9547 7.32326 27.4177 7.12767 27.95 7.12767C28.4402 7.12767 28.819 7.25394 29.074 7.50152C29.3439 7.76644 29.542 8.11306 29.6608 8.53643C29.7846 8.98704 29.8663 9.43518 29.896 9.87093C29.9307 10.3339 29.9455 10.7202 29.9455 11.0494V17.759H33.0478V10.7102C33.0478 10.2819 33.023 9.79913 32.9735 9.27425C32.924 8.75184 32.82 8.18982 32.6615 7.60304V7.59809Z" fill="#E7E7E7"/>
<path d="M47.299 7.5609C46.8731 6.54827 46.2666 5.7461 45.4842 5.17912C44.6845 4.60967 43.7065 4.30762 42.5849 4.30762C41.7852 4.30762 41.0747 4.46855 40.4879 4.78794C39.9011 5.08999 39.3861 5.57031 38.9949 6.19175C38.6755 6.6894 38.4081 7.29351 38.2126 7.96943L38.3562 4.627H35.5634V21.5545H38.6582V18.0165C38.6582 17.5708 38.6409 17.1277 38.6235 16.6647C38.6062 16.1844 38.5344 15.6867 38.4626 15.1891C38.4279 14.9935 38.4106 14.8152 38.3735 14.6369C38.5344 15.0999 38.73 15.5431 38.9429 15.9343C39.3168 16.5929 39.8318 17.1252 40.4359 17.499C41.0573 17.8729 41.8224 18.0685 42.7112 18.0685C43.7956 18.0685 44.7563 17.7838 45.5386 17.2143C46.321 16.6449 46.9251 15.8278 47.3163 14.8127C47.7248 13.8001 47.9204 12.5721 47.9204 11.1856C47.9204 9.79909 47.7075 8.57106 47.299 7.55843V7.5609ZM38.6582 10.9925C38.6582 10.5295 38.73 10.069 38.8885 9.60597C39.0469 9.14298 39.2623 8.6998 39.5297 8.29129C39.7798 7.9001 40.1165 7.59804 40.5077 7.38512C40.8989 7.17219 41.3619 7.0484 41.8768 7.0484C42.4809 7.0484 43.0157 7.22666 43.4243 7.54605C43.8328 7.86543 44.172 8.34575 44.3849 8.96967C44.6151 9.59111 44.7241 10.3562 44.7241 11.193C44.7241 12.0298 44.6176 12.7924 44.4047 13.4337C44.1918 14.0551 43.8724 14.5354 43.4441 14.8746C43.0182 15.2311 42.5206 15.3896 41.8966 15.3896C41.4708 15.3896 41.0796 15.3005 40.7404 15.1395C40.4012 14.9613 40.0992 14.7137 39.8516 14.429C39.5842 14.1096 39.3713 13.7877 39.193 13.4337C38.9974 13.0969 38.8736 12.7404 38.7845 12.3492C38.6953 11.9754 38.6607 11.6213 38.6607 11.3168V10.9974L38.6582 10.9925Z" fill="#E7E7E7"/>
<path d="M44.5953 8.8954C44.365 8.23682 44.0085 7.72184 43.5628 7.36532C43.0998 7.00879 42.5304 6.83301 41.8743 6.83301C41.3222 6.83301 40.8245 6.95679 40.3987 7.18953C39.9728 7.42226 39.6163 7.75898 39.3316 8.1675C39.0468 8.61315 38.8339 9.07366 38.673 9.53665C38.512 10.017 38.4427 10.5146 38.4427 10.9949V11.3143C38.4427 11.651 38.4774 12.0076 38.5665 12.3988C38.6556 12.7899 38.7968 13.1811 38.975 13.5377C39.1706 13.8942 39.4009 14.2309 39.6856 14.5701C39.953 14.8895 40.2724 15.1395 40.6462 15.3351C41.0028 15.5134 41.4286 15.6199 41.8916 15.6199C42.5675 15.6199 43.1196 15.4243 43.5801 15.0504C44.0258 14.6765 44.3799 14.1616 44.6126 13.503C44.8255 12.8444 44.9493 12.062 44.9493 11.1905C44.9493 10.319 44.8255 9.55398 44.5928 8.89788L44.5953 8.8954ZM41.8916 15.1717C41.5004 15.1717 41.1439 15.0826 40.8418 14.9415C40.5398 14.7805 40.2551 14.5503 40.0248 14.2656C39.7574 13.9808 39.5445 13.6614 39.3835 13.3223C39.2053 13.0029 39.0815 12.6637 39.0097 12.3096C38.9206 11.9531 38.8859 11.6164 38.8859 11.3143V10.9949C38.8859 10.5493 38.9577 10.1061 39.0988 9.68025C39.2424 9.2346 39.4553 8.80875 39.7029 8.41756C39.9505 8.06104 40.2551 7.77631 40.6091 7.58072C40.9656 7.38512 41.3915 7.27866 41.8718 7.27866C42.4239 7.27866 42.9042 7.41978 43.2756 7.72431C43.6668 8.02637 43.9689 8.47203 44.1644 9.039C44.3947 9.64311 44.5012 10.3735 44.5012 11.1905C44.5012 12.0076 44.3947 12.7379 44.1818 13.3594C43.9862 13.9288 43.6841 14.3918 43.2929 14.7112C42.9191 15.0133 42.4561 15.1742 41.8891 15.1742L41.8916 15.1717Z" fill="#E7E7E7"/>
<path d="M55.9226 15.0285C55.6379 15.1052 55.3655 15.1424 55.0882 15.1424C54.6327 15.1424 54.2761 15.0309 53.9988 14.8032C53.7364 14.5878 53.6052 14.1793 53.6052 13.585V7.29634H57.0194V4.63231H53.6052V1.82715H51.5774L51.3571 3.57016C51.3298 3.9663 51.216 4.25598 51.0228 4.43671C50.8297 4.61745 50.498 4.71648 50.0424 4.73134H48.8465V7.2493H50.5524V13.7088C50.5524 14.3625 50.6341 14.9592 50.7926 15.4816C50.9535 16.0114 51.1961 16.4769 51.5155 16.8631C51.8399 17.2568 52.2608 17.5539 52.7683 17.747C53.2635 17.9351 53.8478 18.0292 54.5039 18.0292C54.8555 18.0292 55.2269 17.997 55.6379 17.9302C56.0414 17.8633 56.4747 17.7445 56.9228 17.5761L57.0664 17.5217V14.4046L56.7149 14.6521C56.4598 14.8329 56.1925 14.9592 55.9201 15.0334L55.9226 15.0285Z" fill="#E7E7E7"/>
<path d="M60.4532 0C59.8318 0 59.3539 0.136173 59.032 0.406042C58.6953 0.683339 58.5245 1.10671 58.5245 1.66131C58.5245 2.154 58.7003 2.54519 59.0444 2.82249C59.3762 3.08988 59.8491 3.22606 60.4532 3.22606C61.0573 3.22606 61.5549 3.08988 61.8842 2.82496C62.2309 2.54766 62.4066 2.14658 62.4066 1.63902C62.4066 1.13147 62.2284 0.705619 61.8743 0.418418C61.5351 0.141121 61.0573 0.00247451 60.4532 0.00247451V0Z" fill="#E7E7E7"/>
<path d="M62.0427 4.63281H58.9404V17.7574H62.0427V4.63281Z" fill="#E7E7E7"/>
<path d="M69.963 14.9841L66.7617 4.65723H63.4069L68.0021 17.757H71.8793L76.4201 4.65723H73.1395L69.963 14.9841Z" fill="#E7E7E7"/>
<path d="M86.1157 13.0376L86.0984 13.2876C86.0984 13.555 86.0266 13.8397 85.9028 14.1047C85.7592 14.3721 85.6007 14.6196 85.3705 14.8326C85.1749 15.0455 84.8902 15.2238 84.5336 15.3649C84.1969 15.506 83.7686 15.5778 83.3056 15.5778C82.1667 15.5778 81.315 15.2213 80.7282 14.5107C80.1959 13.8695 79.8914 12.9633 79.8394 11.7897L88.7302 11.7006L88.7476 11.505C88.7995 10.3488 88.7302 9.33614 88.4975 8.44731C88.2846 7.55847 87.9107 6.81076 87.4131 6.18932C86.9154 5.56787 86.2742 5.10488 85.5289 4.7855C84.7985 4.48344 83.9642 4.33984 83.058 4.33984C82.0454 4.33984 81.1367 4.5181 80.3544 4.87215C79.5893 5.22868 78.9332 5.72633 78.3984 6.34777C77.8835 6.98902 77.4749 7.73425 77.2075 8.60576C76.9228 9.45993 76.799 10.4008 76.799 11.4159C76.799 12.431 76.9228 13.3 77.2075 14.1195C77.4749 14.9366 77.9008 15.6496 78.4356 16.2364C78.9679 16.8058 79.6636 17.2688 80.4633 17.6055C81.263 17.9249 82.2063 18.1032 83.2561 18.1032C84.1103 18.1032 84.8728 17.9967 85.5314 17.7838C86.2073 17.5709 86.7768 17.2515 87.2571 16.8405C87.7547 16.4493 88.1286 15.969 88.4133 15.4367C88.6807 14.9217 88.859 14.3349 88.9654 13.711L89.0001 13.4981L86.1182 13.0351L86.1157 13.0376ZM81.3323 7.45448C81.7953 7.09796 82.3821 6.9395 83.058 6.9395C83.6448 6.9395 84.1796 7.08063 84.6228 7.36535C85.0684 7.65008 85.4051 8.09326 85.6007 8.66271C85.7072 8.94743 85.779 9.28415 85.8137 9.64068L79.9805 9.69515C80.0523 9.42775 80.1241 9.18016 80.2108 8.94743C80.4782 8.30618 80.8495 7.7912 81.3299 7.45448H81.3323Z" fill="#E7E7E7"/>
</svg>
