<svg width="87" height="22" viewBox="0 0 87 22" fill="none" xmlns="http://www.w3.org/2000/svg">
<path d="M11.3126 17.5382C11.2597 17.0219 11.2261 16.4696 11.1925 15.8837C11.1589 15.2978 11.1397 14.7118 11.1397 14.1595C11.1229 13.5904 11.1228 13.0213 11.1228 12.469V10.0557C11.1228 9.28004 11.0364 8.57165 10.8635 7.95211C10.6906 7.29655 10.3977 6.72743 10.0014 6.26157C9.60521 5.79571 9.06972 5.41631 8.39735 5.15696C7.74179 4.89762 6.91333 4.76074 5.9648 4.76074C5.30924 4.76074 4.65368 4.84719 3.99812 5.00328C3.35936 5.15936 2.77344 5.4163 2.29077 5.7621C1.79129 6.10789 1.37587 6.55453 1.04929 7.07322C0.720305 7.58951 0.496981 8.21145 0.410533 8.91744L0.376911 9.10715L3.11923 9.81314L3.15284 9.5706C3.22248 9.00149 3.41219 8.53563 3.68834 8.18984C3.9813 7.86326 4.3271 7.60392 4.72331 7.46464C5.56858 7.15487 6.55073 7.17167 7.18948 7.49825C7.51846 7.65434 7.7586 7.86086 7.93149 8.13701C8.10439 8.39635 8.19083 8.72293 8.19083 9.08554C8.19083 9.30886 8.12119 9.48175 8.00112 9.60182C7.88106 9.73869 7.63852 9.86117 7.29513 9.9284C6.91572 10.0317 6.39944 10.1181 5.74388 10.1877C5.07151 10.3246 4.41594 10.4471 3.77719 10.5672C3.12163 10.704 2.50209 10.9129 1.94978 11.2059C1.36386 11.5157 0.881191 11.9311 0.5354 12.4474C0.189609 12.9637 -9.15527e-05 13.6384 -9.15527e-05 14.4477C-9.15527e-05 15.2569 0.172803 15.9485 0.516192 16.4648C0.861983 16.9811 1.32784 17.3965 1.91377 17.6727C2.48288 17.9488 3.10482 18.1049 3.75798 18.1049C4.63687 18.1049 5.39569 17.9152 6.05125 17.5694C6.70681 17.2068 7.24231 16.741 7.67214 16.155C8.00113 15.706 8.25807 15.2065 8.46459 14.6902C8.46459 15.1033 8.48139 15.5187 8.48139 15.9149L8.55103 17.7591H11.327L11.3102 17.5358L11.3126 17.5382ZM4.7065 15.6748C4.17101 15.6748 3.74117 15.5379 3.44821 15.2786C3.15525 15.0024 3.01597 14.623 3.01597 14.1067C3.01597 13.6745 3.10242 13.3479 3.30894 13.1246C3.49864 12.882 3.7916 12.6923 4.1542 12.5386C4.53361 12.3826 4.94664 12.2625 5.41249 12.1929C5.87835 12.1064 6.34421 12.0368 6.79086 11.9695C7.25672 11.8831 7.70577 11.7798 8.11879 11.6429C8.1356 11.6429 8.15241 11.6261 8.17162 11.6261L8.18843 12.4882C8.03234 13.0045 7.82583 13.4704 7.5857 13.8858C7.34317 14.2988 7.0502 14.6278 6.74043 14.8871C6.41145 15.1297 6.06806 15.3362 5.72227 15.4731C5.35967 15.6099 5.03309 15.6796 4.70411 15.6796L4.7065 15.6748Z" fill="white"/>
<path d="M31.6782 7.91698C31.5221 7.34547 31.3084 6.82198 31.0419 6.36572C30.7633 5.88546 30.3623 5.49404 29.8508 5.19868C29.3393 4.90572 28.703 4.75684 27.9586 4.75684C27.2142 4.75684 26.5346 4.93453 25.9462 5.28272C25.3531 5.63332 24.856 6.17842 24.4694 6.90362C24.1597 7.48474 23.9075 8.20994 23.7226 9.06962C23.689 8.57254 23.6242 8.10909 23.5329 7.68405C23.4032 7.06931 23.1895 6.54342 22.8966 6.11598C22.6012 5.68615 22.217 5.34996 21.7535 5.11223C21.2901 4.8769 20.745 4.75684 20.1302 4.75684C19.4002 4.75684 18.7375 4.93453 18.1611 5.28513C17.5848 5.63812 17.1094 6.19283 16.754 6.93724C16.4706 7.53277 16.2401 8.26517 16.0696 9.12004L16.2641 5.04019H13.5746L13.601 17.7696H16.5859V12.4315C16.6315 11.3989 16.7804 10.4912 17.0253 9.73478C17.2655 8.99037 17.5896 8.41405 17.9883 8.02504C18.3749 7.64323 18.8431 7.46073 19.4218 7.46073C19.8973 7.46073 20.2479 7.5928 20.4904 7.86415C20.7498 8.14991 20.9395 8.51011 21.0572 8.93514C21.1772 9.37699 21.2565 9.82843 21.2853 10.2751C21.3165 10.7577 21.3333 11.1348 21.3333 11.4301V17.772H24.2941V12.3642C24.3398 11.3629 24.4886 10.4816 24.7336 9.73719C24.9737 9.00958 25.3075 8.43807 25.7301 8.03945C26.1432 7.65043 26.5922 7.46073 27.1085 7.46073C27.584 7.46073 27.9514 7.5832 28.1987 7.82333C28.4604 8.08027 28.6525 8.41645 28.7678 8.82708C28.8879 9.26412 28.9671 9.69877 28.9959 10.1214C29.0296 10.5704 29.044 10.9451 29.044 11.2644V17.772H32.0528V10.9354C32.0528 10.52 32.0288 10.0518 31.9808 9.54268C31.9328 9.036 31.8319 8.4909 31.6782 7.92178V7.91698Z" fill="white"/>
<path d="M45.8748 7.88093C45.4618 6.89878 44.8735 6.12076 44.1147 5.57085C43.339 5.01855 42.3905 4.72559 41.3027 4.72559C40.5271 4.72559 39.8379 4.88167 39.2688 5.19144C38.6997 5.48441 38.2002 5.95026 37.8208 6.55299C37.511 7.03566 37.2517 7.62159 37.062 8.27715L37.2013 5.03536H34.4926V21.4532H37.4942V18.0217C37.4942 17.5895 37.4774 17.1597 37.4606 16.7106C37.4438 16.2448 37.3741 15.7621 37.3045 15.2794C37.2709 15.0897 37.2541 14.9168 37.2181 14.7439C37.3741 15.193 37.5638 15.6228 37.7704 16.0022C38.133 16.641 38.6324 17.1573 39.2184 17.5199C39.8211 17.8825 40.5631 18.0722 41.4252 18.0722C42.477 18.0722 43.4087 17.796 44.1675 17.2437C44.9263 16.6914 45.5122 15.899 45.8917 14.9144C46.2879 13.9323 46.4776 12.7412 46.4776 11.3965C46.4776 10.0517 46.2711 8.86067 45.8748 7.87853V7.88093ZM37.4942 11.2092C37.4942 10.7601 37.5638 10.3135 37.7175 9.86442C37.8712 9.41538 38.0801 8.98554 38.3395 8.58932C38.582 8.20991 38.9086 7.91695 39.288 7.71043C39.6674 7.50392 40.1165 7.38386 40.6159 7.38386C41.2019 7.38386 41.7205 7.55675 42.1168 7.86652C42.513 8.17629 42.842 8.64215 43.0485 9.24728C43.2718 9.85002 43.3775 10.592 43.3775 11.4037C43.3775 12.2153 43.2742 12.9549 43.0677 13.5769C42.8612 14.1796 42.5514 14.6455 42.136 14.9744C41.723 15.3202 41.2403 15.4739 40.6352 15.4739C40.2221 15.4739 39.8427 15.3875 39.5137 15.2314C39.1847 15.0585 38.8918 14.8184 38.6517 14.5422C38.3923 14.2324 38.1858 13.9203 38.0129 13.5769C37.8232 13.2503 37.7031 12.9045 37.6167 12.5251C37.5302 12.1625 37.4966 11.8191 37.4966 11.5237V11.214L37.4942 11.2092Z" fill="white"/>
<path d="M43.2525 9.17511C43.0291 8.53635 42.6833 8.03688 42.2511 7.69109C41.8021 7.3453 41.2497 7.1748 40.6134 7.1748C40.0779 7.1748 39.5952 7.29486 39.1822 7.52059C38.7692 7.74631 38.4234 8.0729 38.1472 8.46912C37.8711 8.90136 37.6646 9.348 37.5085 9.79705C37.3524 10.2629 37.2852 10.7456 37.2852 11.2114V11.5212C37.2852 11.8478 37.3188 12.1936 37.4052 12.573C37.4917 12.9524 37.6285 13.3318 37.8014 13.6776C37.9911 14.0234 38.2145 14.35 38.4906 14.679C38.75 14.9887 39.0597 15.2313 39.4223 15.421C39.7681 15.5939 40.1812 15.6971 40.6302 15.6971C41.2858 15.6971 41.8213 15.5074 42.2679 15.1448C42.7001 14.7822 43.0435 14.2827 43.2693 13.644C43.4758 13.0052 43.5958 12.2464 43.5958 11.4011C43.5958 10.5559 43.4758 9.81386 43.2501 9.17751L43.2525 9.17511ZM40.6302 15.2625C40.2508 15.2625 39.905 15.176 39.612 15.0392C39.3191 14.8831 39.0429 14.6597 38.8196 14.3836C38.5603 14.1074 38.3537 13.7977 38.1977 13.4687C38.0248 13.1589 37.9047 12.8299 37.8351 12.4865C37.7486 12.1407 37.715 11.8142 37.715 11.5212V11.2114C37.715 10.7792 37.7846 10.3494 37.9215 9.93633C38.0608 9.50409 38.2673 9.09106 38.5074 8.71165C38.7476 8.36586 39.0429 8.08971 39.3863 7.9C39.7321 7.7103 40.1451 7.60704 40.611 7.60704C41.1465 7.60704 41.6123 7.74391 41.9725 8.03928C42.352 8.33224 42.6449 8.76448 42.8346 9.31438C43.0579 9.9003 43.1612 10.6087 43.1612 11.4011C43.1612 12.1936 43.0579 12.902 42.8514 13.5047C42.6617 14.057 42.3688 14.5061 41.9894 14.8158C41.6268 15.1088 41.1777 15.2649 40.6278 15.2649L40.6302 15.2625Z" fill="white"/>
<path d="M54.2386 15.1232C53.9625 15.1977 53.6983 15.2337 53.4294 15.2337C52.9875 15.2337 52.6418 15.1256 52.3728 14.9047C52.1183 14.6958 51.991 14.2996 51.991 13.7232V7.62387H55.3024V5.04004H51.991V2.31934H50.0243L49.8106 4.00987C49.7842 4.39408 49.6737 4.67504 49.4864 4.85034C49.2991 5.02563 48.9773 5.12168 48.5355 5.13609H47.3756V7.57825H49.0302V13.8433C49.0302 14.4773 49.1094 15.056 49.2631 15.5627C49.4192 16.0765 49.6545 16.528 49.9643 16.9026C50.2788 17.2844 50.6871 17.5726 51.1793 17.7599C51.6596 17.9424 52.2263 18.0336 52.8627 18.0336C53.2037 18.0336 53.5639 18.0024 53.9625 17.9376C54.3539 17.8727 54.7741 17.7575 55.2088 17.5942L55.348 17.5414V14.5181L55.0071 14.7582C54.7597 14.9335 54.5004 15.056 54.2362 15.128L54.2386 15.1232Z" fill="white"/>
<path d="M58.633 0.546875C58.0303 0.546875 57.5668 0.678948 57.2546 0.940693C56.928 1.20964 56.7624 1.62027 56.7624 2.15816C56.7624 2.63603 56.9329 3.01544 57.2666 3.28439C57.5884 3.54373 58.0471 3.6758 58.633 3.6758C59.2189 3.6758 59.7016 3.54373 60.021 3.28679C60.3571 3.01784 60.5276 2.62882 60.5276 2.13655C60.5276 1.64428 60.3548 1.23125 60.0114 0.952696C59.6824 0.683748 59.2189 0.549275 58.633 0.549275V0.546875Z" fill="white"/>
<path d="M60.1748 5.04004H57.166V17.7695H60.1748V5.04004Z" fill="white"/>
<path d="M67.8568 15.0794L64.7518 5.06348H61.498L65.9549 17.7689H69.7154L74.1194 5.06348H70.9377L67.8568 15.0794Z" fill="white"/>
<path d="M83.5228 13.1927L83.506 13.4352C83.506 13.6946 83.4363 13.9707 83.3163 14.2277C83.177 14.487 83.0233 14.7271 82.8 14.9337C82.6103 15.1402 82.3341 15.3131 81.9883 15.4499C81.6617 15.5868 81.2463 15.6565 80.7973 15.6565C79.6927 15.6565 78.8666 15.3107 78.2975 14.6215C77.7812 13.9995 77.4858 13.1207 77.4354 11.9824L86.0586 11.896L86.0754 11.7063C86.1258 10.5849 86.0586 9.60271 85.8328 8.74064C85.6263 7.87856 85.2637 7.15336 84.7811 6.55063C84.2984 5.94789 83.6765 5.49884 82.9537 5.18907C82.2453 4.89611 81.436 4.75684 80.5571 4.75684C79.575 4.75684 78.6937 4.92973 77.9349 5.27312C77.1929 5.61891 76.5565 6.10158 76.0378 6.70431C75.5384 7.32625 75.1421 8.04905 74.8828 8.89432C74.6066 9.72278 74.4866 10.6353 74.4866 11.6198C74.4866 12.6044 74.6066 13.4472 74.8828 14.2421C75.1421 15.0345 75.5552 15.7261 76.0739 16.2952C76.5901 16.8475 77.2649 17.2966 78.0405 17.6231C78.8162 17.9329 79.7311 18.1058 80.7492 18.1058C81.5777 18.1058 82.3173 18.0026 82.9561 17.796C83.6116 17.5895 84.1639 17.2798 84.6298 16.8811C85.1124 16.5017 85.4751 16.0359 85.7512 15.5196C86.0106 15.0201 86.1834 14.451 86.2867 13.8459L86.3203 13.6393L83.5252 13.1903L83.5228 13.1927ZM78.8834 7.7777C79.3325 7.43191 79.9016 7.27823 80.5571 7.27823C81.1262 7.27823 81.6449 7.41511 82.0748 7.69126C82.507 7.96741 82.8336 8.39725 83.0233 8.94955C83.1265 9.2257 83.1962 9.55229 83.2298 9.89808L77.5723 9.95091C77.6419 9.69156 77.7116 9.45143 77.7956 9.2257C78.055 8.60376 78.4151 8.10428 78.881 7.7777H78.8834Z" fill="white"/>
</svg>
